<svg xmlns="http://www.w3.org/2000/svg" width="81" height="80" viewBox="0 0 81 80"><defs><mask id="cojrb" width="2" height="2" x="-1" y="-1"><path fill="#fff" d="M13 13h55v55H13z"/><path d="M67.717 40.359c0 15.11-12.249 27.358-27.358 27.358C25.249 67.717 13 55.468 13 40.36 13 25.249 25.249 13 40.359 13c15.11 0 27.358 12.249 27.358 27.359z"/></mask><filter id="cojra" width="105" height="105" x="-12" y="-12" filterUnits="userSpaceOnUse"><feOffset in="SourceGraphic" result="FeOffset1023Out"/><feGaussianBlur in="FeOffset1023Out" result="FeGaussianBlur1024Out" stdDeviation="6 6"/></filter></defs><g><g><g filter="url(#cojra)"><path fill="none" d="M67.717 40.359c0 15.11-12.249 27.358-27.358 27.358C25.249 67.717 13 55.468 13 40.36 13 25.249 25.249 13 40.359 13c15.11 0 27.358 12.249 27.358 27.359z" mask="url(&quot;#cojrb&quot;)"/><path fill="#e3b873" fill-opacity=".5" d="M67.717 40.359c0 15.11-12.249 27.358-27.358 27.358C25.249 67.717 13 55.468 13 40.36 13 25.249 25.249 13 40.359 13c15.11 0 27.358 12.249 27.358 27.359z"/></g><path fill="#e3b873" d="M67.717 40.359c0 15.11-12.249 27.358-27.358 27.358C25.249 67.717 13 55.468 13 40.36 13 25.249 25.249 13 40.359 13c15.11 0 27.358 12.249 27.358 27.359z"/></g><g><path fill="#fff" d="M37.979 32.03l8.327 8.327-8.327 8.326-1.189-1.188 7.139-7.138-7.139-7.138z"/><path fill="none" stroke="#fff" stroke-miterlimit="50" stroke-width=".75" d="M37.979 32.03v0l8.327 8.327v0l-8.327 8.326v0l-1.189-1.188v0l7.139-7.138v0l-7.139-7.138v0z"/></g></g></svg>