<svg width="34" height="21" viewBox="0 0 34 21" fill="none" xmlns="http://www.w3.org/2000/svg">
<path d="M22.2865 5.06994L17.441 3.6162C17.0772 3.50767 16.7034 3.46947 16.333 3.483V3.47053H10.4437L0 0L0.0315744 14.6749L3.02955 16.1735L4.80461 11.834L7.39769 12.8715L8.07004 11.1911L9.0438 12.1649L8.13531 13.0737C7.81957 13.3894 7.63861 13.8261 7.63861 14.2729C7.63861 15.1873 8.36774 15.9307 9.27464 15.9628C9.30622 16.849 10.0186 17.5615 10.9048 17.593C10.9364 18.4792 11.6488 19.1917 12.535 19.2232C12.5677 20.1301 13.3106 20.8593 14.2252 20.8593C14.6717 20.8593 15.1087 20.6783 15.4242 20.3626L16.333 19.4541L16.6981 19.8192C17.0138 20.1349 17.4505 20.3159 17.8974 20.3159C18.812 20.3159 19.5552 19.5867 19.5873 18.6798C20.4735 18.6483 21.1859 17.9358 21.2174 17.0496C22.1037 17.0181 22.8161 16.3056 22.8476 15.4194C23.7545 15.3868 24.4839 14.6439 24.4839 13.7295C24.4839 13.6523 24.4715 13.5762 24.4611 13.4995L25.2409 12.7197L25.8711 13.9806L29.2843 12.2737L31.347 16.2117L33.7217 14.6293V0.584524L22.2865 5.06994ZM2.46652 14.677L1.11731 14.0023L1.08998 1.50734L7.04454 3.48645L2.46652 14.677ZM6.79247 11.4586L5.21561 10.8282L8.07826 3.82979L9.63602 4.34771L6.79247 11.4586ZM8.72541 14.2729C8.72541 14.1124 8.78988 13.9556 8.90344 13.8418L9.8589 12.8866C9.97246 12.773 10.1295 12.7083 10.2898 12.7083C10.6257 12.7083 10.899 12.9818 10.899 13.3175C10.899 13.4777 10.8343 13.6348 10.7207 13.7484L9.7655 14.7038C9.65194 14.8174 9.49487 14.8819 9.33461 14.8819C8.9987 14.8819 8.72541 14.6086 8.72541 14.2729ZM10.3556 15.9031C10.3556 15.7426 10.4201 15.5858 10.5336 15.472L11.4891 14.5168C11.6027 14.4032 11.7597 14.3385 11.92 14.3385C12.2559 14.3385 12.5292 14.612 12.5292 14.9477C12.5292 15.1079 12.4644 15.265 12.3509 15.3786L11.3957 16.334C11.2821 16.4476 11.1251 16.5121 10.9648 16.5121C10.6289 16.5121 10.3556 16.2388 10.3556 15.9031ZM11.9858 17.5333C11.9858 17.3728 12.0503 17.216 12.1638 17.1022L13.1193 16.147C13.2328 16.0334 13.3899 15.9687 13.5502 15.9687C13.8861 15.9687 14.1594 16.2422 14.1594 16.5779C14.1594 16.7381 14.0946 16.8952 13.9811 17.0088L13.0259 17.9642C12.9123 18.0778 12.7553 18.1423 12.595 18.1423C12.2591 18.1423 11.9858 17.869 11.9858 17.5333ZM15.6113 18.639L14.6561 19.5944C14.5425 19.708 14.3854 19.7725 14.2252 19.7725C13.8893 19.7725 13.616 19.4992 13.616 19.1635C13.616 19.003 13.6805 18.8462 13.794 18.7324L14.7495 17.7772C14.863 17.6636 15.0201 17.5989 15.1804 17.5989C15.5163 17.5989 15.7896 17.8724 15.7896 18.2081C15.7896 18.3683 15.7248 18.5254 15.6113 18.639ZM22.7879 14.3385C22.6277 14.3385 22.4706 14.274 22.357 14.1604L17.804 9.6071L17.0356 10.3755L21.5886 14.9286C21.7022 15.0424 21.767 15.1992 21.767 15.3597C21.767 15.6954 21.4937 15.9687 21.1578 15.9687C20.9975 15.9687 20.8404 15.9042 20.7269 15.7906L16.1738 11.2373L15.4054 12.0057L19.9585 16.5588C20.072 16.6726 20.1368 16.8294 20.1368 16.9899C20.1368 17.3256 19.8635 17.5989 19.5276 17.5989C19.3673 17.5989 19.2102 17.5344 19.0967 17.4208L14.5436 12.8675L13.7752 13.6359L18.3283 18.189C18.4418 18.3028 18.5066 18.4596 18.5066 18.6201C18.5066 18.9558 18.2333 19.2291 17.8974 19.2291C17.7371 19.2291 17.58 19.1646 17.4665 19.051L16.8536 18.4378C16.8644 18.362 16.8764 18.2858 16.8764 18.2081C16.8764 17.2935 16.147 16.5503 15.2401 16.5182C15.2085 15.632 14.4961 14.9196 13.6099 14.888C13.5783 14.0018 12.8659 13.2894 11.9797 13.2578C11.9471 12.3509 11.2044 11.6215 10.2898 11.6215C10.2126 11.6215 10.1364 11.634 10.06 11.6443L8.50863 10.0929L10.7233 4.55732H13.9344L11.9391 6.55288C11.6183 6.87287 11.4424 7.29899 11.4424 7.75217C11.4424 8.6872 12.2031 9.4479 13.1384 9.4479C13.5849 9.4479 14.0219 9.26695 14.3374 8.9512L15.7771 7.51125C16.0716 7.2178 16.5903 7.20639 16.8971 7.48737L18.1675 8.65191C18.5896 9.03876 19.0587 9.36061 19.5607 9.61267L23.2188 13.2984C23.3324 13.4122 23.3971 13.569 23.3971 13.7295C23.3971 14.0652 23.1239 14.3385 22.7879 14.3385ZM23.9405 12.4833L21.707 10.2328C21.9065 10.2516 22.1076 10.263 22.3103 10.263V9.1762C21.0452 9.1762 19.8345 8.70524 18.9022 7.85035L17.6315 6.68634C16.9143 6.02779 15.6978 6.05406 15.0092 6.74339L13.5698 8.18307C13.4557 8.2961 13.2986 8.36111 13.1384 8.36111C12.8025 8.36111 12.5292 8.08782 12.5292 7.75217C12.5292 7.58899 12.5921 7.43643 12.7072 7.32101L14.7787 5.24984C15.3873 4.64117 16.3014 4.40953 17.1284 4.65735L21.9288 6.0973L24.7278 11.6961L23.9405 12.4833ZM26.3569 12.5226L23.0623 5.9328L25.4686 4.98875L28.7799 11.3108L26.3569 12.5226ZM32.6349 14.0479L31.749 14.6386L26.4864 4.58996L32.6349 2.17837V14.0479Z" fill="#E3B873"/>
</svg>
