<svg width="28" height="29" viewBox="0 0 28 29" fill="none" xmlns="http://www.w3.org/2000/svg">
<path d="M26.4056 21.9388C25.8241 21.5174 25.1529 21.291 24.475 21.254C21.92 19.5309 20.2463 18.2376 19.2692 17.2313L16.2675 14.1401L18.089 12.0403C18.4342 12.241 18.805 12.3732 19.1759 12.4277C19.4557 12.4758 19.6423 12.4758 19.8289 12.4758C20.2021 12.4758 20.2953 12.4758 20.6685 12.812C20.4819 12.9561 20.3886 13.1963 20.3886 13.4364C20.3886 13.6766 20.4819 13.9648 20.6685 14.157L22.301 15.8382C22.5342 16.1264 22.9073 16.2705 23.2805 16.2705C23.6537 16.2705 24.0268 16.1264 24.26 15.7902L27.5717 12.3797C27.8516 12.1395 27.9915 11.7552 27.9915 11.3709C27.9915 10.9866 27.8516 10.6504 27.5717 10.3622L25.9392 8.68093C25.7526 8.4888 25.5194 8.39271 25.2861 8.39271C25.0529 8.39271 24.8197 8.53682 24.6331 8.68093C24.26 8.3447 24.26 8.24861 24.26 7.8643C24.26 7.67218 24.26 7.43199 24.1667 7.14377C24.0734 6.47126 23.7469 5.7988 23.2338 5.27039L21.5546 3.54112C20.5751 2.53237 20.1087 2.05204 18.8493 1.47561C16.144 0.178658 13.3921 0.418854 9.38073 2.29223C9.1475 2.38832 9.05424 2.58045 9.10087 2.82064C9.14749 3.06084 9.3341 3.20495 9.56728 3.20495H10.1736C12.2259 3.20495 13.2987 3.20495 15.1645 5.12634C15.9814 5.96768 16.005 7.25771 15.273 8.20684C15.1744 8.22215 15.0993 8.26775 15.0245 8.3447L12.9526 10.7263L11.3864 9.1133C9.66491 7.34046 8.45408 5.66314 7.52218 3.79544C7.47326 2.85037 7.10501 1.96614 6.44221 1.28355C5.64931 0.466983 4.52987 0.0826807 3.41043 0.17877C3.2705 0.226787 3.13057 0.322877 3.08395 0.418966C2.99064 0.563072 2.99064 0.755195 3.08395 0.899302L4.38994 3.30109C4.11008 3.92553 3.45706 4.30983 2.80409 4.26182L1.45142 1.95606C1.40479 1.81196 1.21818 1.71587 1.07825 1.71587C0.938322 1.66785 0.798392 1.76388 0.705087 1.90799C-0.414351 3.63726 0.00543853 5.94296 1.6846 7.14383C2.26312 7.56939 2.91488 7.80604 3.57496 7.85457C3.58234 7.85778 3.58928 7.86172 3.59693 7.86436C5.41602 8.82509 7.04855 10.074 8.77433 11.8513L10.4802 13.5682L0.565212 24.965C0.192048 25.3493 0.00549316 25.8777 0.00549316 26.4061C0.00549316 26.9345 0.192048 27.4149 0.565212 27.7992L1.21824 28.4717C1.5914 28.8079 2.05781 29.0001 2.52423 29.0001C2.99064 29.0001 3.50374 28.808 3.8769 28.4237L13.7806 17.007L16.6571 19.9694C17.6357 20.9772 18.8937 22.7522 20.5705 25.3421C20.6306 26.2666 20.998 27.1297 21.648 27.7992C22.3476 28.5197 23.2805 28.904 24.26 28.904C24.3999 28.904 24.5399 28.904 24.6332 28.904C24.7731 28.904 24.913 28.8079 25.0063 28.6638C25.0996 28.5197 25.0996 28.3276 25.0063 28.1835L23.6537 25.8297C23.9802 25.2053 24.5866 24.821 25.2862 24.869L26.5922 27.1747C26.6388 27.3188 26.8254 27.4149 26.9654 27.4149C27.1519 27.3669 27.2918 27.3188 27.3851 27.1747C28.5045 25.4454 28.0381 23.1397 26.4056 21.9388ZM15.7709 4.35785C14.2783 2.86877 13.1589 2.38838 11.8995 2.24427C14.5582 1.37964 16.5172 1.42765 18.4762 2.34036C19.5957 2.8207 19.9688 3.205 20.9483 4.21374L22.6275 5.94302C23.0006 6.32732 23.2338 6.80766 23.2805 7.28799C23.3271 7.52819 23.3271 7.72031 23.3271 7.86442C23.3271 8.39283 23.3738 8.77707 23.9335 9.3535C24.12 9.54562 24.3999 9.64171 24.6331 9.64171C24.913 9.64171 25.1462 9.54562 25.2861 9.3535L26.9187 11.0348C27.012 11.1308 27.0586 11.2269 27.0586 11.371C27.0586 11.5151 27.012 11.6112 26.9187 11.7072L23.607 15.1177C23.4204 15.3099 23.1406 15.3099 22.954 15.1177L21.3214 13.4365C21.508 13.2924 21.6013 13.0522 21.5547 12.764C21.5547 12.5238 21.4614 12.2356 21.2748 12.0434C20.7151 11.467 20.3419 11.419 19.8289 11.419C19.689 11.419 19.5024 11.419 19.2692 11.371C18.7561 11.323 18.3363 11.0828 17.9632 10.6985L15.9575 8.63297C16.9836 7.33607 16.8904 5.5107 15.7709 4.35785ZM1.12493 3.205L2.10444 4.93428C2.19774 5.07838 2.33767 5.17447 2.4776 5.17447H2.71084C3.78365 5.22249 4.76316 4.64606 5.22957 3.68539L5.32288 3.4452C5.41618 3.30109 5.41618 3.15698 5.32288 3.01288L4.29669 1.18751C4.85641 1.2836 5.3695 1.57182 5.78929 2.00413C6.27019 2.54065 6.57809 3.21919 6.59629 3.94805C6.58727 3.98503 6.58219 4.02483 6.58219 4.06969C6.58219 4.29216 6.55612 4.50916 6.50785 4.71834C6.3319 5.41388 5.90998 6.02031 5.32282 6.42347C4.38994 7.04791 3.13057 7.04791 2.19774 6.37545C1.21824 5.65481 0.798446 4.35785 1.12493 3.205ZM9.42741 11.1789C8.02811 9.68978 6.62882 8.53693 5.13621 7.62422C5.36945 7.52813 5.64931 7.38403 5.88249 7.23992C6.58214 6.75958 7.04855 6.13509 7.32841 5.36654C8.21461 6.90369 9.33405 8.34475 10.7333 9.78582L12.3354 11.4357L11.0791 12.8799L9.42741 11.1789ZM3.22388 27.7031C2.85071 28.0874 2.24437 28.1354 1.8712 27.7511L1.21818 27.1266C1.03163 26.9345 0.938322 26.6943 0.938322 26.4541C0.938322 26.1659 1.03163 25.9257 1.26481 25.6856L1.52898 25.3812L2.19769 26.0699C2.29099 26.166 2.38424 26.214 2.52417 26.214C2.6641 26.214 2.75741 26.166 2.85066 26.0699C3.03721 25.8778 3.03721 25.5895 2.85066 25.3974L2.14532 24.671L2.76173 23.9607L3.50368 24.7248C3.59699 24.8209 3.69024 24.869 3.83017 24.869C3.9701 24.869 4.0634 24.8209 4.15665 24.7248C4.34321 24.5327 4.34321 24.2445 4.15665 24.0523L3.37818 23.2506L15.3757 9.4269L17.3348 11.4444L15.4099 13.6622C15.3549 13.6862 15.3063 13.7228 15.2578 13.7728L13.3921 15.9344C13.3388 15.9893 13.3013 16.0521 13.2785 16.1181L3.22388 27.7031ZM14.4188 16.2712L15.6953 14.7998L18.7094 17.9038C19.549 18.8165 20.9949 19.9693 23.0938 21.4104C22.814 21.5065 22.5341 21.6506 22.2543 21.8427C21.6756 22.2152 21.2657 22.7324 20.9801 23.3041C20.9759 23.3122 20.972 23.3205 20.9679 23.3288C20.951 23.3632 20.9344 23.3977 20.9184 23.4325C20.8954 23.4818 20.8735 23.5316 20.8526 23.5819C20.8382 23.616 20.824 23.65 20.8105 23.6843C20.8086 23.6893 20.8067 23.6942 20.8048 23.6992C20.7901 23.7368 20.7755 23.7744 20.7617 23.8122C20.4968 23.412 20.2419 23.0344 19.9968 22.6786L20.6218 22.0349C20.8083 21.8428 20.8083 21.5546 20.6218 21.3624C20.4352 21.1703 20.1554 21.1703 19.9688 21.3624L19.4488 21.8979C19.255 21.627 19.0677 21.3715 18.8872 21.1313L19.3158 20.6899C19.5023 20.4978 19.5023 20.2095 19.3158 20.0174C19.1292 19.8252 18.8494 19.8252 18.6628 20.0174L18.3067 20.384C17.9639 19.9585 17.6477 19.5964 17.3568 19.2968L14.4188 16.2712ZM26.9186 25.8777L25.9391 24.1484C25.8458 24.0043 25.7059 23.9082 25.566 23.9082H25.3327C24.2599 23.8121 23.2804 24.4366 22.814 25.3973L22.7207 25.6375C22.6274 25.7816 22.6274 25.9257 22.7207 26.0698L23.7468 27.8952C23.1871 27.7991 22.674 27.5109 22.2542 27.0786C21.7824 26.5522 21.4775 25.8891 21.4488 25.1761C21.4568 25.141 21.4613 25.1032 21.4613 25.0611C21.4613 24.4526 21.6488 23.8828 21.9758 23.4003C22.1766 23.1124 22.4279 22.8604 22.7206 22.6593C23.187 22.3231 23.7001 22.179 24.2599 22.179C24.8196 22.179 25.3793 22.3711 25.8457 22.7074C26.8254 23.4279 27.2452 24.7248 26.9186 25.8777Z" fill="#E3B873"/>
</svg>
